<svg width="233" height="235" xmlns="http://www.w3.org/2000/svg" xmlns:xlink="http://www.w3.org/1999/xlink" xml:space="preserve" overflow="hidden"><defs><clipPath id="clip0"><rect x="2083" y="1112" width="233" height="235"/></clipPath></defs><g clip-path="url(#clip0)" transform="translate(-2083 -1112)"><path d="M2281 1151.31C2250.23 1108.81 2190.83 1099.29 2148.31 1130.05 2118.09 1151.92 2103.46 1189.45 2110.92 1226L2206.46 1183.58 2154.04 1183.58C2166.71 1156.19 2199.19 1144.26 2226.58 1156.92 2232.34 1159.59 2237.59 1163.23 2242.1 1167.7Z" fill="#003366" fill-rule="evenodd"/><path d="M2301 1147 2204.91 1244 2083 1244 2301 1147Z" fill="#2990EA" fill-rule="evenodd"/><path d="M2103 1336.82 2094.33 1336.82 2094.33 1343.72 2104 1343.72 2104 1347 2090 1347 2090 1324 2103.65 1324 2103.65 1327.28 2094.33 1327.28 2094.33 1333.54 2103 1333.54 2103 1336.82Z" fill="#003366" fill-rule="evenodd"/><path d="M2112.22 1324 2112.22 1337.23C2112.22 1341.76 2114.19 1343.68 2116.81 1343.68 2119.43 1343.68 2121.71 1341.76 2121.71 1337.23L2121.71 1324 2126 1324 2126 1336.93C2126 1344.01 2122.39 1347 2116.85 1347 2111.3 1347 2108 1344.08 2108 1336.93L2108 1324Z" fill="#003366" fill-rule="evenodd"/><path d="M2131.5 1324.69C2133.49 1324.26 2135.52 1324.05 2137.55 1324.03 2140.05 1323.83 2142.54 1324.52 2144.61 1325.99 2145.92 1327.13 2146.63 1328.85 2146.5 1330.62 2146.55 1333.25 2144.82 1335.56 2142.34 1336.2 2144.02 1337.04 2145.24 1338.62 2145.67 1340.49 2145.98 1342.58 2146.43 1344.66 2147 1346.69L2142.84 1346.69C2142.17 1344.98 2141.63 1343.22 2141.25 1341.41 2140.58 1338.43 2139.65 1337.47 2137.09 1337.47L2135.16 1337.47 2135.16 1347 2131 1347 2131 1324.69ZM2135.32 1334.97 2137.89 1334.97C2140.75 1334.97 2142.34 1333.32 2142.34 1330.99 2142.34 1328.66 2140.75 1327.39 2137.89 1327.39 2136.59 1327.39 2135.66 1327.39 2135.32 1327.7Z" fill="#003366" fill-rule="evenodd"/><path d="M2159.84 1347C2153.1 1347 2149.04 1342.08 2149.04 1335.14 2148.53 1328.94 2153.27 1323.52 2159.62 1323.03 2159.79 1323.02 2159.97 1323.01 2160.15 1323 2166.08 1322.94 2170.93 1327.57 2171 1333.34 2171 1333.73 2170.99 1334.11 2170.95 1334.49 2171.3 1342.73 2166.25 1347 2159.84 1347M2160.19 1343.58C2164.22 1343.58 2166.6 1340.16 2166.6 1335.03 2166.6 1330.8 2164.22 1326.52 2160.19 1326.52 2156.15 1326.52 2153.77 1330.45 2153.77 1335.03 2153.77 1339.62 2155.8 1343.58 2160.19 1343.58" fill="#003366" fill-rule="evenodd"/><path d="M2191 1346C2189.06 1346.6 2187.04 1346.93 2185.01 1346.97 2178.88 1347.43 2173.52 1343.06 2173.04 1337.2 2173 1336.73 2172.99 1336.26 2173.02 1335.79 2172.68 1329.61 2177.65 1324.34 2184.11 1324.02 2184.52 1323.99 2184.94 1324 2185.35 1324.02 2187.28 1324.02 2189.18 1324.34 2191 1324.95L2190 1328.26C2188.52 1327.66 2186.95 1327.34 2185.35 1327.3 2180.66 1327.3 2176.86 1330.94 2176.86 1335.43 2176.86 1339.91 2180.66 1343.55 2185.35 1343.55 2186.92 1343.51 2188.48 1343.29 2190 1342.92Z" fill="#003366" fill-rule="evenodd"/><path d="M2202.8 1347C2196.09 1347 2192.04 1342.08 2192.04 1335.14 2191.53 1328.94 2196.26 1323.53 2202.59 1323.03 2202.78 1323.02 2202.98 1323.01 2203.18 1323 2209.09 1322.94 2213.93 1327.57 2214 1333.34 2214 1333.73 2213.99 1334.11 2213.95 1334.49 2214.3 1342.73 2209.58 1347 2202.87 1347M2203.22 1343.58C2207.24 1343.58 2209.58 1340.16 2209.58 1335.03 2209.58 1330.8 2207.24 1326.52 2203.22 1326.52 2199.2 1326.52 2196.82 1330.45 2196.82 1335.03 2196.82 1339.62 2199.17 1343.58 2203.22 1343.58" fill="#003366" fill-rule="evenodd"/><path d="M2218 1347 2218 1324 2222.83 1324 2228.63 1333.84C2230.08 1336.27 2231.36 1338.79 2232.48 1341.4 2232.18 1338.23 2232.07 1335.04 2232.15 1331.86L2232.15 1324 2236 1324 2236 1347 2231.81 1347 2225.71 1336.75C2224.28 1334.19 2222.98 1331.55 2221.82 1328.85 2222.12 1332.12 2222.23 1335.41 2222.16 1338.7L2222.16 1346.93Z" fill="#003366" fill-rule="evenodd"/><path d="M2245.41 1327.62 2239 1327.62 2239 1324 2256 1324 2256 1327.62 2249.59 1327.62 2249.59 1347 2245.41 1347 2245.41 1327.62Z" fill="#003366" fill-rule="evenodd"/><path d="M2258.46 1324.69C2260.62 1324.25 2262.82 1324.03 2265.02 1324.03 2267.65 1323.83 2270.27 1324.52 2272.44 1325.99 2273.84 1327.12 2274.6 1328.84 2274.47 1330.62 2274.5 1333.24 2272.69 1335.54 2270.08 1336.2 2271.86 1337.04 2273.15 1338.61 2273.6 1340.49 2273.93 1342.58 2274.4 1344.65 2275 1346.69L2270.61 1346.69C2269.91 1344.98 2269.35 1343.21 2268.92 1341.41 2268.26 1338.43 2267.24 1337.47 2264.53 1337.47L2262.53 1337.47 2262.53 1347 2258 1347 2258 1324.69ZM2262.85 1334.97 2265.55 1334.97C2268.61 1334.97 2270.26 1333.32 2270.26 1330.99 2270.26 1328.66 2268.61 1327.39 2265.55 1327.39 2264.18 1327.39 2263.2 1327.39 2262.85 1327.7Z" fill="#003366" fill-rule="evenodd"/><path d="M2287.83 1347C2281.1 1347 2277.03 1342.08 2277.03 1335.14 2276.55 1328.92 2281.32 1323.5 2287.69 1323.03 2287.85 1323.02 2288.02 1323.01 2288.18 1323 2294.09 1322.93 2298.93 1327.55 2299 1333.3 2299 1333.7 2298.99 1334.09 2298.94 1334.49 2298.94 1342.73 2294.21 1347 2287.83 1347M2288.18 1343.58C2292.21 1343.58 2294.56 1340.16 2294.56 1335.03 2294.56 1330.8 2292.21 1326.52 2288.18 1326.52 2284.15 1326.52 2281.77 1330.45 2281.77 1335.03 2281.77 1339.62 2283.77 1343.58 2288.18 1343.58" fill="#003366" fill-rule="evenodd"/><path d="M2303 1324 2307.03 1324 2307.03 1343.38 2316 1343.38 2316 1347 2303.29 1347 2303.29 1324 2303 1324Z" fill="#003366" fill-rule="evenodd"/><path d="M2203.18 1262C2190.35 1262.04 2177.9 1257.67 2167.95 1249.62L2117 1249.62C2141.48 1296.97 2199.99 1315.65 2247.67 1291.34 2266.63 1281.68 2281.85 1266.1 2291 1247L2241.35 1247C2230.98 1256.66 2217.29 1262.02 2203.07 1262" fill="#003366" fill-rule="evenodd"/></g></svg>